<?xml version="1.0" encoding="UTF-8" standalone="no"?>
<svg
   xmlns:dc="http://purl.org/dc/elements/1.1/"
   xmlns:cc="http://creativecommons.org/ns#"
   xmlns:rdf="http://www.w3.org/1999/02/22-rdf-syntax-ns#"
   xmlns:svg="http://www.w3.org/2000/svg"
   xmlns="http://www.w3.org/2000/svg"
   xmlns:sodipodi="http://sodipodi.sourceforge.net/DTD/sodipodi-0.dtd"
   xmlns:inkscape="http://www.inkscape.org/namespaces/inkscape"
   width="1440"
   height="569"
   version="1.1"
   id="svg389"
   sodipodi:docname="bg-stars.svg"
   inkscape:version="0.92.3 (2405546, 2018-03-11)">
  <metadata
     id="metadata395">
    <rdf:RDF>
      <cc:Work
         rdf:about="">
        <dc:format>image/svg+xml</dc:format>
        <dc:type
           rdf:resource="http://purl.org/dc/dcmitype/StillImage" />
      </cc:Work>
    </rdf:RDF>
  </metadata>
  <defs
     id="defs393" />
  <sodipodi:namedview
     pagecolor="#ffffff"
     bordercolor="#666666"
     borderopacity="1"
     objecttolerance="10"
     gridtolerance="10"
     guidetolerance="10"
     inkscape:pageopacity="0"
     inkscape:pageshadow="2"
     inkscape:window-width="1366"
     inkscape:window-height="713"
     id="namedview391"
     showgrid="false"
     inkscape:zoom="1.1808411"
     inkscape:cx="333.12228"
     inkscape:cy="375.32252"
     inkscape:window-x="0"
     inkscape:window-y="27"
     inkscape:window-maximized="1"
     inkscape:current-layer="svg389" />
  <path
     d="M774 563a3 3 0 110 6 3 3 0 010-6zm-623.5-5a1.5 1.5 0 110 3 1.5 1.5 0 010-3zm875 0a1.5 1.5 0 110 3 1.5 1.5 0 010-3zm-523-3a1.5 1.5 0 110 3 1.5 1.5 0 010-3zm233-7a1.5 1.5 0 110 3 1.5 1.5 0 010-3zM178 542a3 3 0 110 6 3 3 0 010-6zm1127.5 2a1.5 1.5 0 110 3 1.5 1.5 0 010-3zm45.5-10a3 3 0 110 6 3 3 0 010-6zm-565.5-3a1.5 1.5 0 110 3 1.5 1.5 0 010-3zm-784-15a1.5 1.5 0 110 3 1.5 1.5 0 010-3zm278.5-9a3 3 0 110 6 3 3 0 010-6zm207.5-30a1.5 1.5 0 110 3 1.5 1.5 0 010-3zm50-17a1.5 1.5 0 110 3 1.5 1.5 0 010-3zm233-8a1.5 1.5 0 110 3 1.5 1.5 0 010-3zm465-22a1.5 1.5 0 110 3 1.5 1.5 0 010-3zm-699-6a1.5 1.5 0 110 3 1.5 1.5 0 010-3zm-465-22a1.5 1.5 0 110 3 1.5 1.5 0 010-3zm1165-8a1.5 1.5 0 110 3 1.5 1.5 0 010-3zm-50-17a1.5 1.5 0 110 3 1.5 1.5 0 010-3zM250 345a3 3 0 110 6 3 3 0 010-6zm450.5-7a1.5 1.5 0 110 3 1.5 1.5 0 010-3zm-614-15a1.5 1.5 0 110 3 1.5 1.5 0 010-3zm520-13a1.5 1.5 0 110 3 1.5 1.5 0 010-3zm-570-4a1.5 1.5 0 110 3 1.5 1.5 0 010-3zm1169.5-7a3 3 0 110 6 3 3 0 010-6zm-4.5 0a1.5 1.5 0 110 3 1.5 1.5 0 010-3zm-875-3a1.5 1.5 0 110 3 1.5 1.5 0 010-3zm523 0a1.5 1.5 0 110 3 1.5 1.5 0 010-3zm-392-34a1.5 1.5 0 110 3 1.5 1.5 0 010-3zm656 0a1.5 1.5 0 110 3 1.5 1.5 0 010-3zm-1008-3a1.5 1.5 0 110 3 1.5 1.5 0 010-3zm1298-7a1.5 1.5 0 110 3 1.5 1.5 0 010-3zm-570-4a1.5 1.5 0 110 3 1.5 1.5 0 010-3zm520-13a1.5 1.5 0 110 3 1.5 1.5 0 010-3zm-145.5-9a3 3 0 110 6 3 3 0 010-6zm-601.5-6a1.5 1.5 0 110 3 1.5 1.5 0 010-3zm499.5-29a3 3 0 110 6 3 3 0 010-6zm-985.5-10a1.5 1.5 0 110 3 1.5 1.5 0 010-3zm-50-17a1.5 1.5 0 110 3 1.5 1.5 0 010-3zm1298-8a1.5 1.5 0 110 3 1.5 1.5 0 010-3zm-465-22a1.5 1.5 0 110 3 1.5 1.5 0 010-3zm-832-6a1.5 1.5 0 110 3 1.5 1.5 0 010-3zm33.5-18a3 3 0 110 6 3 3 0 010-6zm431.5-4a1.5 1.5 0 110 3 1.5 1.5 0 010-3zm366-8a1.5 1.5 0 110 3 1.5 1.5 0 010-3zm50-17a1.5 1.5 0 110 3 1.5 1.5 0 010-3zm486-39a1.5 1.5 0 110 3 1.5 1.5 0 010-3zM1136 29a3 3 0 110 6 3 3 0 010-6zm-614.5-2a1.5 1.5 0 110 3 1.5 1.5 0 010-3zM412 23a3 3 0 110 6 3 3 0 010-6zM1.5 14a1.5 1.5 0 110 3 1.5 1.5 0 010-3zm570-4a1.5 1.5 0 110 3 1.5 1.5 0 010-3zm366-7a1.5 1.5 0 110 3 1.5 1.5 0 010-3zm-656-3a1.5 1.5 0 110 3 1.5 1.5 0 010-3zm1008 0a1.5 1.5 0 110 3 1.5 1.5 0 010-3z"
     id="path387"
     fill-rule="evenodd"
     fill="#46485B" />
  <path
     sodipodi:type="star"
     style="fill:#00ff00;stroke-width:5.6499424"
     id="path433"
     sodipodi:sides="5"
     sodipodi:cx="603.09558"
     sodipodi:cy="229.96059"
     sodipodi:r1="21.052631"
     sodipodi:r2="10.526316"
     sodipodi:arg1="0.64350111"
     sodipodi:arg2="1.2718196"
     inkscape:flatsided="false"
     inkscape:rounded="0"
     inkscape:randomized="0"
     d="m 619.93769,242.59217 -13.74166,-2.57223 -9.9093,9.86181 -1.80007,-13.86395 -12.44128,-6.37683 12.62915,-5.99617 2.22016,-13.80292 L 606.5,220 l 13.81342,-2.15383 -6.69274,12.27423 z"
     inkscape:transform-center-x="0.40054729"
     inkscape:transform-center-y="-0.01487201"
     transform="matrix(0.20905169,0,0,0.14985064,460.36783,212.43672)" />
  <path
     transform="matrix(0.20905169,0,0,0.14985064,224.36783,326.43672)"
     inkscape:transform-center-y="-0.01487201"
     inkscape:transform-center-x="0.40054729"
     d="m 619.93769,242.59217 -13.74166,-2.57223 -9.9093,9.86181 -1.80007,-13.86395 -12.44128,-6.37683 12.62915,-5.99617 2.22016,-13.80292 L 606.5,220 l 13.81342,-2.15383 -6.69274,12.27423 z"
     inkscape:randomized="0"
     inkscape:rounded="0"
     inkscape:flatsided="false"
     sodipodi:arg2="1.2718196"
     sodipodi:arg1="0.64350111"
     sodipodi:r2="10.526316"
     sodipodi:r1="21.052631"
     sodipodi:cy="229.96059"
     sodipodi:cx="603.09558"
     sodipodi:sides="5"
     id="path437"
     style="fill:#0000ff;stroke-width:5.6499424"
     sodipodi:type="star" />
  <path
     sodipodi:type="star"
     style="fill:#0000ff;stroke-width:5.6499424"
     id="path439"
     sodipodi:sides="5"
     sodipodi:cx="603.09558"
     sodipodi:cy="229.96059"
     sodipodi:r1="21.052631"
     sodipodi:r2="10.526316"
     sodipodi:arg1="0.64350111"
     sodipodi:arg2="1.2718196"
     inkscape:flatsided="false"
     inkscape:rounded="0"
     inkscape:randomized="0"
     d="m 619.93769,242.59217 -13.74166,-2.57223 -9.9093,9.86181 -1.80007,-13.86395 -12.44128,-6.37683 12.62915,-5.99617 2.22016,-13.80292 L 606.5,220 l 13.81342,-2.15383 -6.69274,12.27423 z"
     inkscape:transform-center-x="0.40054729"
     inkscape:transform-center-y="-0.01487201"
     transform="matrix(0.20905169,0,0,0.14985064,420.36783,104.43672)" />
  <path
     transform="matrix(0.20905169,0,0,0.14985064,310.36783,166.43672)"
     inkscape:transform-center-y="-0.01487201"
     inkscape:transform-center-x="0.40054729"
     d="m 619.93769,242.59217 -13.74166,-2.57223 -9.9093,9.86181 -1.80007,-13.86395 -12.44128,-6.37683 12.62915,-5.99617 2.22016,-13.80292 L 606.5,220 l 13.81342,-2.15383 -6.69274,12.27423 z"
     inkscape:randomized="0"
     inkscape:rounded="0"
     inkscape:flatsided="false"
     sodipodi:arg2="1.2718196"
     sodipodi:arg1="0.64350111"
     sodipodi:r2="10.526316"
     sodipodi:r1="21.052631"
     sodipodi:cy="229.96059"
     sodipodi:cx="603.09558"
     sodipodi:sides="5"
     id="path441"
     style="fill:#ff0000;stroke-width:5.6499424"
     sodipodi:type="star" />
  <path
     sodipodi:type="star"
     style="fill:#ff0000;stroke-width:5.6499424"
     id="path443"
     sodipodi:sides="5"
     sodipodi:cx="603.09558"
     sodipodi:cy="229.96059"
     sodipodi:r1="21.052631"
     sodipodi:r2="10.526316"
     sodipodi:arg1="0.64350111"
     sodipodi:arg2="1.2718196"
     inkscape:flatsided="false"
     inkscape:rounded="0"
     inkscape:randomized="0"
     d="m 619.93769,242.59217 -13.74166,-2.57223 -9.9093,9.86181 -1.80007,-13.86395 -12.44128,-6.37683 12.62915,-5.99617 2.22016,-13.80292 L 606.5,220 l 13.81342,-2.15383 -6.69274,12.27423 z"
     inkscape:transform-center-x="0.40054729"
     inkscape:transform-center-y="-0.01487201"
     transform="matrix(0.20905169,0,0,0.14985064,888.36783,394.43672)" />
  <path
     transform="matrix(0.20905169,0,0,0.14985064,936.36783,46.43672)"
     inkscape:transform-center-y="-0.01487201"
     inkscape:transform-center-x="0.40054729"
     d="m 619.93769,242.59217 -13.74166,-2.57223 -9.9093,9.86181 -1.80007,-13.86395 -12.44128,-6.37683 12.62915,-5.99617 2.22016,-13.80292 L 606.5,220 l 13.81342,-2.15383 -6.69274,12.27423 z"
     inkscape:randomized="0"
     inkscape:rounded="0"
     inkscape:flatsided="false"
     sodipodi:arg2="1.2718196"
     sodipodi:arg1="0.64350111"
     sodipodi:r2="10.526316"
     sodipodi:r1="21.052631"
     sodipodi:cy="229.96059"
     sodipodi:cx="603.09558"
     sodipodi:sides="5"
     id="path445"
     style="fill:#0000ff;stroke-width:5.6499424"
     sodipodi:type="star" />
  <path
     sodipodi:type="star"
     style="fill:#00ff00;stroke-width:5.6499424"
     id="path447"
     sodipodi:sides="5"
     sodipodi:cx="603.09558"
     sodipodi:cy="229.96059"
     sodipodi:r1="21.052631"
     sodipodi:r2="10.526316"
     sodipodi:arg1="0.64350111"
     sodipodi:arg2="1.2718196"
     inkscape:flatsided="false"
     inkscape:rounded="0"
     inkscape:randomized="0"
     d="m 619.93769,242.59217 -13.74166,-2.57223 -9.9093,9.86181 -1.80007,-13.86395 -12.44128,-6.37683 12.62915,-5.99617 2.22016,-13.80292 L 606.5,220 l 13.81342,-2.15383 -6.69274,12.27423 z"
     inkscape:transform-center-x="0.40054729"
     inkscape:transform-center-y="-0.01487201"
     transform="matrix(0.20905169,0,0,0.14985064,686.36783,6.43672)" />
  <path
     transform="matrix(0.20905169,0,0,0.14985064,1138.3678,172.43672)"
     inkscape:transform-center-y="-0.01487201"
     inkscape:transform-center-x="0.40054729"
     d="m 619.93769,242.59217 -13.74166,-2.57223 -9.9093,9.86181 -1.80007,-13.86395 -12.44128,-6.37683 12.62915,-5.99617 2.22016,-13.80292 L 606.5,220 l 13.81342,-2.15383 -6.69274,12.27423 z"
     inkscape:randomized="0"
     inkscape:rounded="0"
     inkscape:flatsided="false"
     sodipodi:arg2="1.2718196"
     sodipodi:arg1="0.64350111"
     sodipodi:r2="10.526316"
     sodipodi:r1="21.052631"
     sodipodi:cy="229.96059"
     sodipodi:cx="603.09558"
     sodipodi:sides="5"
     id="path449"
     style="fill:#00ff00;stroke-width:5.6499424"
     sodipodi:type="star" />
  <path
     sodipodi:type="star"
     style="fill:#00ff00;stroke-width:5.6499424"
     id="path451"
     sodipodi:sides="5"
     sodipodi:cx="603.09558"
     sodipodi:cy="229.96059"
     sodipodi:r1="21.052631"
     sodipodi:r2="10.526316"
     sodipodi:arg1="0.64350111"
     sodipodi:arg2="1.2718196"
     inkscape:flatsided="false"
     inkscape:rounded="0"
     inkscape:randomized="0"
     d="m 619.93769,242.59217 -13.74166,-2.57223 -9.9093,9.86181 -1.80007,-13.86395 -12.44128,-6.37683 12.62915,-5.99617 2.22016,-13.80292 L 606.5,220 l 13.81342,-2.15383 -6.69274,12.27423 z"
     inkscape:transform-center-x="0.40054729"
     inkscape:transform-center-y="-0.01487201"
     transform="matrix(0.20905169,0,0,0.14985064,68.277605,66.03941)" />
</svg>
