<?xml version="1.0" encoding="UTF-8" standalone="no"?>
<svg
   xmlns:dc="http://purl.org/dc/elements/1.1/"
   xmlns:cc="http://creativecommons.org/ns#"
   xmlns:rdf="http://www.w3.org/1999/02/22-rdf-syntax-ns#"
   xmlns:svg="http://www.w3.org/2000/svg"
   xmlns="http://www.w3.org/2000/svg"
   xmlns:xlink="http://www.w3.org/1999/xlink"
   xmlns:sodipodi="http://sodipodi.sourceforge.net/DTD/sodipodi-0.dtd"
   xmlns:inkscape="http://www.inkscape.org/namespaces/inkscape"
   width="1440"
   height="197"
   version="1.1"
   id="svg326"
   sodipodi:docname="pattern-hills.svg"
   inkscape:version="0.92.3 (2405546, 2018-03-11)">
  <metadata
     id="metadata330">
    <rdf:RDF>
      <cc:Work
         rdf:about="">
        <dc:format>image/svg+xml</dc:format>
        <dc:type
           rdf:resource="http://purl.org/dc/dcmitype/StillImage" />
      </cc:Work>
    </rdf:RDF>
  </metadata>
  <sodipodi:namedview
     pagecolor="#ffffff"
     bordercolor="#666666"
     borderopacity="1"
     objecttolerance="10"
     gridtolerance="10"
     guidetolerance="10"
     inkscape:pageopacity="0"
     inkscape:pageshadow="2"
     inkscape:window-width="1366"
     inkscape:window-height="713"
     id="namedview328"
     showgrid="false"
     inkscape:zoom="0.2375"
     inkscape:cx="720"
     inkscape:cy="98.5"
     inkscape:window-x="0"
     inkscape:window-y="27"
     inkscape:window-maximized="1"
     inkscape:current-layer="svg326" />
  <defs
     id="defs311">
    <path
       id="a"
       d="M0 0h1440v197H0z" />
  </defs>
  <g
     id="g324"
     fill-rule="evenodd"
     fill="none">
    <mask
       id="b"
       fill="#fff">
      <use
         xlink:href="#a"
         id="use313" />
    </mask>
    <g
       mask="url(#b)"
       id="g322">
      <path
         d="M1440 50.205L1088.504 0 949.669 50.205 878 25.102 556 0 398.525 50.205l-95.807-25.103-51.328 16.761L45.704 0 0 17.701V160h1440z"
         id="path316"
         fill="#211A29" />
      <path
         d="M1394.296 1l94.649 69.336 50.047-49.449zM1137.282 42.576l51.328 27.76 80.6-5.426zM884 1l157.475 83.151 80.929-26.062zM351.496 1l138.835 83.151 49.321-28.526z"
         id="path318"
         fill="#1A1823" />
      <path
         d="M0 84.151L351.496 1l138.835 83.151L562 42.576 884 1l157.475 83.151 95.807-41.575 51.328 27.76L1394.296 1 1440 30.317V266H0z"
         id="path320"
         fill="#2F2439" />
    </g>
  </g>
</svg>
